<svg xmlns="http://www.w3.org/2000/svg" viewBox="0 0 512 512">
  <defs>
    <linearGradient id="hex" x1="0.2" y1="0" x2="0.4" y2="1">
      <stop offset="0" stop-color="#46d8cf"/>
      <stop offset="0.45" stop-color="#1f86bf"/>
      <stop offset="1" stop-color="#0e2c54"/>
    </linearGradient>
  </defs>
  <polygon points="46,256 151,74 361,74 466,256 361,438 151,438" fill="url(#hex)"/>
  <!-- грани -->
  <g stroke="#39b5cf" stroke-opacity="0.45" stroke-width="2">
    <line x1="256" y1="256" x2="46" y2="256"/>
    <line x1="256" y1="256" x2="151" y2="74"/>
    <line x1="256" y1="256" x2="361" y2="74"/>
    <line x1="256" y1="256" x2="466" y2="256"/>
    <line x1="256" y1="256" x2="361" y2="438"/>
    <line x1="256" y1="256" x2="151" y2="438"/>
    <line x1="256" y1="256" x2="256" y2="74"/>
    <line x1="256" y1="256" x2="256" y2="438"/>
  </g>
  <!-- сеть-узлы -->
  <g stroke="#ffffff" stroke-width="5" stroke-linecap="round">
    <line x1="256" y1="256" x2="256" y2="150"/>
    <line x1="256" y1="256" x2="178" y2="322"/>
    <line x1="256" y1="256" x2="334" y2="322"/>
  </g>
  <g fill="#ffffff">
    <circle cx="256" cy="256" r="15"/>
    <circle cx="256" cy="150" r="9"/>
    <circle cx="178" cy="322" r="9"/>
    <circle cx="334" cy="322" r="9"/>
  </g>
</svg>
